<?xml version="1.0" encoding="utf-8"?>
<!-- Generator: Adobe Illustrator 21.0.0, SVG Export Plug-In . SVG Version: 6.00 Build 0)  -->
<svg version="1.1"
	 id="svg2" inkscape:version="0.48.5 r10040" sodipodi:docname="Facebook Logo.svg" xmlns:cc="http://creativecommons.org/ns#" xmlns:dc="http://purl.org/dc/elements/1.1/" xmlns:inkscape="http://www.inkscape.org/namespaces/inkscape" xmlns:rdf="http://www.w3.org/1999/02/22-rdf-syntax-ns#" xmlns:sodipodi="http://sodipodi.sourceforge.net/DTD/sodipodi-0.dtd" xmlns:svg="http://www.w3.org/2000/svg"
	 xmlns="http://www.w3.org/2000/svg" xmlns:xlink="http://www.w3.org/1999/xlink" x="0px" y="0px" viewBox="0 0 1003.2 337.3"
	 style="enable-background:new 0 0 1003.2 337.3;" xml:space="preserve">
<style type="text/css">
	.st0{fill:#8DA291;}
</style>
<sodipodi:namedview  bordercolor="#666666" borderopacity="1" fit-margin-bottom="0" fit-margin-left="0" fit-margin-right="0" fit-margin-top="0" gridtolerance="10" guidetolerance="10" id="namedview14" inkscape:current-layer="svg2" inkscape:cx="952.94991" inkscape:cy="-20.974662" inkscape:pageopacity="0" inkscape:pageshadow="2" inkscape:window-height="706" inkscape:window-maximized="1" inkscape:window-width="1366" inkscape:window-x="-8" inkscape:window-y="-8" inkscape:zoom="2" objecttolerance="10" pagecolor="#ffffff" showgrid="false">
	</sodipodi:namedview>
<g id="layer1" transform="translate(-39.48794,-563.5689)" inkscape:groupmode="layer" inkscape:label="Layer 1">
	<g id="g3435">
		<path id="path2998" inkscape:connector-curvature="0" sodipodi:nodetypes="cccccccccccccc" class="st0" d="M287,684H170.8v34.5
			h82.4c-4.1,48.4-44.3,69-82.3,69c-48.6,0-91-38.2-91-91.8c0-52.2,40.4-92.4,91.1-92.4c39.1,0,62.1,24.9,62.1,24.9l24.1-25
			c0,0-31-34.5-87.5-34.5c-72,0-127.7,60.8-127.7,126.4c0,64.3,52.4,127,129.5,127c67.8,0,117.5-46.5,117.5-115.2
			C289.1,692.4,287,684,287,684L287,684z"/>
		<path id="path3000" inkscape:connector-curvature="0" class="st0" d="M382.2,659.1c-47.7,0-81.9,37.3-81.9,80.8
			c0,44.1,33.1,82.1,82.4,82.1c44.6,0,81.2-34.1,81.2-81.2C463.9,686.8,421.4,659.1,382.2,659.1L382.2,659.1z M382.7,691.1
			c23.5,0,45.7,19,45.7,49.5c0,29.9-22.1,49.4-45.8,49.4c-26,0-46.5-20.8-46.5-49.6C336.1,712.1,356.4,691.1,382.7,691.1
			L382.7,691.1z"/>
		<path id="path3005" inkscape:connector-curvature="0" class="st0" d="M560.3,659.1c-47.7,0-81.9,37.3-81.9,80.8
			c0,44.1,33.1,82.1,82.4,82.1c44.6,0,81.2-34.1,81.2-81.2C642,686.8,599.5,659.1,560.3,659.1L560.3,659.1z M560.8,691.1
			c23.5,0,45.7,19,45.7,49.5c0,29.9-22.1,49.4-45.8,49.4c-26,0-46.5-20.8-46.5-49.6C514.2,712.1,534.4,691.1,560.8,691.1
			L560.8,691.1z"/>
		<path id="path3007" inkscape:connector-curvature="0" class="st0" d="M734.9,659.2c-43.8,0-78.2,38.3-78.2,81.4
			c0,49,39.9,81.5,77.4,81.5c23.2,0,35.6-9.2,44.7-19.8v16.1c0,28.1-17.1,44.9-42.8,44.9c-24.9,0-37.4-18.5-41.7-29L663,847.3
			c11.1,23.5,33.5,48,73.2,48c43.5,0,76.7-27.4,76.7-84.9V664h-34.1v13.8C768.3,666.5,754,659.2,734.9,659.2z M738.1,691.1
			c21.5,0,43.5,18.3,43.5,49.6c0,31.8-22,49.3-44,49.3c-23.3,0-45-18.9-45-49C692.5,709.7,715.1,691.1,738.1,691.1L738.1,691.1z"/>
		<path id="path3011" inkscape:connector-curvature="0" class="st0" d="M964.8,659c-41.3,0-76,32.9-76,81.3
			c0,51.3,38.6,81.7,79.9,81.7c34.5,0,55.6-18.8,68.2-35.7l-28.2-18.7c-7.3,11.3-19.5,22.4-39.9,22.4c-22.9,0-33.4-12.5-39.9-24.7
			l109.2-45.3l-5.7-13.3C1021.9,680.7,997.3,659,964.8,659L964.8,659z M966.2,690.3c14.9,0,25.6,7.9,30.1,17.4l-72.9,30.5
			C920.3,714.6,942.6,690.3,966.2,690.3z"/>
		<path id="path3015" inkscape:connector-curvature="0" class="st0" d="M836.7,817.2h35.9v-240h-35.9V817.2z"/>
	</g>
</g>
</svg>
