<?xml version="1.0" encoding="utf-8"?>
<!-- Generator: Adobe Illustrator 21.0.0, SVG Export Plug-In . SVG Version: 6.00 Build 0)  -->
<svg version="1.1"
	 id="svg2" inkscape:version="0.48.5 r10040" sodipodi:docname="Facebook Logo.svg" xmlns:cc="http://creativecommons.org/ns#" xmlns:dc="http://purl.org/dc/elements/1.1/" xmlns:inkscape="http://www.inkscape.org/namespaces/inkscape" xmlns:rdf="http://www.w3.org/1999/02/22-rdf-syntax-ns#" xmlns:sodipodi="http://sodipodi.sourceforge.net/DTD/sodipodi-0.dtd" xmlns:svg="http://www.w3.org/2000/svg"
	 xmlns="http://www.w3.org/2000/svg" xmlns:xlink="http://www.w3.org/1999/xlink" x="0px" y="0px" viewBox="0 0 1003.2 246.8"
	 style="enable-background:new 0 0 1003.2 246.8;" xml:space="preserve">
<style type="text/css">
	.st0{fill:#8DA291;}
</style>
<sodipodi:namedview  bordercolor="#666666" borderopacity="1" fit-margin-bottom="0" fit-margin-left="0" fit-margin-right="0" fit-margin-top="0" gridtolerance="10" guidetolerance="10" id="namedview14" inkscape:current-layer="svg2" inkscape:cx="952.94991" inkscape:cy="-20.974662" inkscape:pageopacity="0" inkscape:pageshadow="2" inkscape:window-height="706" inkscape:window-maximized="1" inkscape:window-width="1366" inkscape:window-x="-8" inkscape:window-y="-8" inkscape:zoom="2" objecttolerance="10" pagecolor="#ffffff" showgrid="false">
	</sodipodi:namedview>
<g>
	<path class="st0" d="M982.1,9.8c7.5,1.3,12.6,5.9,12.6,13.8c0,2.6-1.1,6.3-1.8,9.5c-5.1,22.3-24.8,101-33.1,153.6l-7.6-7.6
		l24.3-161.7L982.1,9.8z"/>
	<path class="st0" d="M490.1,31.2c-10.2,2.4-20.2,2.4-30,0l15.6,16.2L490.1,31.2z"/>
	<path class="st0" d="M334,31.2c10.2,2.4,20.2,2.4,30,0l-15.6,16.2L334,31.2z"/>
	<path class="st0" d="M245.9,31.2c23,58.3,59.3,146.5,77.3,180.2l-26.7-8.2L230.3,37.8L245.9,31.2z"/>
	<path class="st0" d="M224.9,31.2c7.4,2.5,13.5,2.6,20.9,0l-14.9,9.1L224.9,31.2z"/>
	<path class="st0" d="M235.4,37.5l67.4,165.3c-4,4.3-5.8,6.6-9.6,8.6c-19.5-50.3-40.5-100.7-58.3-150.3l-8.8-14.9L235.4,37.5z"/>
	<path class="st0" d="M177.5,211.4l-19.9-7L227.7,40l7.8-2.4v24.3C224.6,93.3,196.9,162.3,177.5,211.4L177.5,211.4z"/>
	<path class="st0" d="M161,7.2l6.6,15l16.8-7.8l6.8-7.2C180.4,9.7,170.6,9.8,161,7.2L161,7.2z"/>
	<path class="st0" d="M113.5,138.2l-11.4,4.2l-7.2-12.6l71.5-114.1l5.1-1.8c7.1-1.6,14.7-3.3,19.8-6.7
		C179.9,22.6,138.5,94.2,113.5,138.2L113.5,138.2z"/>
	<path class="st0" d="M97.9,136.4l3-3l70.7-119.5L161,7.2c-8.5,15.9-40,67.4-60.1,100.3l-9.6,18L97.9,136.4z"/>
	<path class="st0" d="M40.9,7.2C56.6,35,80.6,73.9,101,107.5v25.8l-4.8,4.8L25.9,13.2L40.9,7.2z"/>
	<path class="st0" d="M29.3,14.8l11.6-7.6c-12.4,2.7-17.6,2.8-30,0l4.8,5.4L29.3,14.8z"/>
	<path class="st0" d="M100.9,133.4l-5.4,7.8l-7.2-3C74.8,115,35.4,44.3,10.8,7.2c5,3.6,11.7,5.6,19.5,6.9L100.9,133.4z"/>
	<path class="st0" d="M115.4,234.9l-20.4-9.6l1.8-85.3l4.2-6.6l12.6,4.8L115.4,234.9z"/>
	<path class="st0" d="M100.9,228.3l-14.4,6.6l1.8-96.7l12.6-4.8L100.9,228.3z"/>
	<path class="st0" d="M147.8,211.4c25.1-51.1,52.9-119.6,77.1-180.3l10.6,6.4L167,204.9l-13.9,4.7L147.8,211.4z"/>
	<path class="st0" d="M302.1,202.6l21,8.9c-8.1-2-19-2.8-30,0.1l4.1-10.1L302.1,202.6z"/>
	<path class="st0" d="M188.6,152.4l14.8-6.3c21.3,0.7,42.6,0.7,63.9,0l15,6.5l-14,3.1h-69.1L188.6,152.4z"/>
	<path class="st0" d="M198.5,158.6l-9.9-6.2c31.2-0.5,62.4-0.4,93.7,0.2l-9.9,6.1C247.7,157.8,223.1,157.9,198.5,158.6L198.5,158.6z
		"/>
	<path class="st0" d="M364,211.4l-21-7.2V42.7l6-3l15-8.4C360.9,91.2,360.8,151.3,364,211.4L364,211.4z"/>
	<path class="st0" d="M349,203v4.2l-15,4.2c2.4-60,2.6-120,0-180.2l15,8.4V203z"/>
	<path class="st0" d="M460.1,211.4l21-7.2V42.7l-6-3l-15-8.4C463.2,91.2,463.2,151.3,460.1,211.4L460.1,211.4z"/>
	<path class="st0" d="M349,121l12.6-5.6c33.5,0.8,67.1,0.8,100.7,0l12.7,5.6l-15.7,3.7h-97.8L349,121z"/>
	<path class="st0" d="M596.1,31.2c-59,0-88.4,36.9-88.4,90.5c0,67.2,44.6,90.4,87.7,90.4c51.2,0,87.9-28.8,87.9-90.3
		C683.2,62.7,648.5,31.2,596.1,31.2L596.1,31.2z M594.3,39.7c0.6,0,1.1,0,1.7,0c39,0,67.6,26.5,67.6,82c0,55.4-28.6,81.9-67.5,81.9
		c-42.5,0-67.4-30.4-67.4-81.8C528.7,63.8,559.4,40.5,594.3,39.7L594.3,39.7z"/>
	<path class="st0" d="M595.9,28.8c-63.7,0-97.1,40.4-97.1,92.8c0,57.3,36.5,92.3,97,92.3c65.5,0,97.4-39.4,97.4-91.7
		C693.2,63.9,655,28.8,595.9,28.8L595.9,28.8z M596.1,34.8c50.3,0,83.7,30.3,83.7,87.1c0,59-35.3,86.7-84.4,86.7
		c-41.4,0-84.2-22.3-84.2-86.8C511.2,70.2,539.4,34.8,596.1,34.8z"/>
	<path class="st0" d="M816.2,22c-59.9,0-100.9,33.8-100.9,99.8c0,64.7,38.2,100.9,101.1,100.9c47.7,0,99.9-24.5,99.9-99.9
		C916.4,41.3,859.3,22,816.2,22L816.2,22z M815.9,29.2c47.6,0,82.7,28.9,82.7,92.8c0,69.4-42.5,91.9-82.7,91.9
		c-43,0-82.1-25.2-82.1-93.3C733.9,50,777.3,29.2,815.9,29.2z"/>
	<path class="st0" d="M815.8,18c-63.4,0-111.9,36-111.9,103c0,55.2,32.3,103.8,112.5,103.8c67.9,0,112.2-37.3,112.2-102.8
		C928.6,60.2,887.3,18,815.8,18L815.8,18z M816.2,24.7c41.9,0,97.5,18.8,97.5,98c0,73.4-50.9,97.2-97.2,97.2
		c-61.3,0-98.4-35.2-98.4-98.1C718.1,57.6,758,24.7,816.2,24.7z"/>
	<path class="st0" d="M933.5,221.7c0-7.7,4.7-15,14.2-15c9,0,15.8,5.4,15.8,14c0,10.8-7.1,14.7-13.6,14.7
		C940.8,235.6,933.5,230.9,933.5,221.7L933.5,221.7z"/>
	<path class="st0" d="M948.6,185c7.3-51.8,11.8-106.2,16.1-160.4c0-10.8,7.1-15,14.4-15c1.3,0,3.1,0.3,3.1,0.3l-2,13l-25.7,160.8
		L948.6,185z"/>
	<g>
		<path class="st0" d="M86.5,234.9l14.4-10.6l14.4,10.6c0,0-8-1.5-14.4-1.5C95.2,233.4,86.5,234.9,86.5,234.9L86.5,234.9z"/>
		<path class="st0" d="M147.8,211.5l20.1-8.7c3.1,3.7,5.8,6.8,9.6,8.7C170.2,209.4,159.3,208.6,147.8,211.5L147.8,211.5z"/>
		<path class="st0" d="M334,211.4c9.8-2.4,19.7-2.5,30,0l-15-8.4L334,211.4z"/>
		<path class="st0" d="M361.7,127.6L349,121c42,0.4,84,0.5,126,0l-12.6,6.6C428.8,127.1,395.3,127.2,361.7,127.6L361.7,127.6z"/>
	</g>
	<g>
		<path class="st0" d="M475.1,203v4.2l15,4.2c-2.4-60-2.6-120,0-180.2l-15,8.4V203z"/>
		<path class="st0" d="M490.1,211.4c-9.8-2.4-19.7-2.5-30,0l15-8.4L490.1,211.4z"/>
		<path class="st0" d="M955.2,179l-6.7,6.1c4.5-0.8,7.9,0.4,11.3,1.7L955.2,179z"/>
		<ellipse class="st0" cx="979.7" cy="22.7" rx="14.6" ry="12.8"/>
	</g>
</g>
</svg>
